<svg xmlns="http://www.w3.org/2000/svg" viewBox="0 0 512 512" role="img" aria-labelledby="title desc">
  <title id="title">Cixp avatar</title>
  <desc id="desc">Black and red Cixp monogram avatar.</desc>
  <defs>
    <radialGradient id="glow" cx="50%" cy="42%" r="62%">
      <stop offset="0%" stop-color="#ff3b4f" stop-opacity="0.95" />
      <stop offset="50%" stop-color="#820a18" stop-opacity="0.88" />
      <stop offset="100%" stop-color="#070707" stop-opacity="1" />
    </radialGradient>
    <linearGradient id="ring" x1="90" x2="422" y1="72" y2="440" gradientUnits="userSpaceOnUse">
      <stop stop-color="#ff6a75" />
      <stop offset="0.48" stop-color="#ff1e35" />
      <stop offset="1" stop-color="#5d0610" />
    </linearGradient>
    <filter id="shadow" x="-20%" y="-20%" width="140%" height="140%">
      <feDropShadow dx="0" dy="24" stdDeviation="26" flood-color="#000000" flood-opacity="0.65" />
      <feDropShadow dx="0" dy="0" stdDeviation="18" flood-color="#ff1e35" flood-opacity="0.45" />
    </filter>
  </defs>
  <rect width="512" height="512" fill="#050505" />
  <circle cx="256" cy="256" r="220" fill="url(#glow)" filter="url(#shadow)" />
  <circle cx="256" cy="256" r="216" fill="none" stroke="url(#ring)" stroke-width="18" />
  <circle cx="256" cy="256" r="158" fill="#090909" opacity="0.82" />
  <path
    d="M340 330c-27 23-60 35-99 35-65 0-119-45-119-109s54-109 119-109c39 0 73 13 99 36l-39 48c-16-14-35-22-58-22-31 0-56 19-56 47s25 47 56 47c24 0 43-8 58-22l39 49Z"
    fill="#ffffff"
  />
  <path
    d="M340 330c-27 23-60 35-99 35-65 0-119-45-119-109s54-109 119-109c39 0 73 13 99 36l-39 48c-16-14-35-22-58-22-31 0-56 19-56 47s25 47 56 47c24 0 43-8 58-22l39 49Z"
    fill="none"
    stroke="#ff263b"
    stroke-width="8"
    stroke-linejoin="round"
    opacity="0.75"
  />
</svg>
